{
  "accessors": [
    {
      "bufferView": 2,
      "componentType": 5126,
      "count": 5329,
      "max": [100.0, 88.37889862060547, 37.10940170288086],
      "min": [-100.0, -88.37889862060547, -37.10940170288086],
      "type": "VEC3"
    },
    {
      "bufferView": 2,
      "byteOffset": 63948,
      "componentType": 5126,
      "count": 5329,
      "max": [0.9999438524246216, 1.0, 1.0],
      "min": [-0.999997615814209, -1.0, -1.0],
      "type": "VEC3"
    },
    {
      "bufferView": 1,
      "componentType": 5126,
      "count": 5329,
      "max": [0.9961000084877014, 0.9993000030517578],
      "min": [0.0019000000320374966, 0.002899999963119626],
      "type": "VEC2"
    },
    {
      "bufferView": 0,
      "componentType": 5125,
      "count": 9993,
      "type": "SCALAR"
    },
    {
      "bufferView": 2,
      "byteOffset": 127896,
      "componentType": 5126,
      "count": 1241,
      "max": [98.68160247802734, 88.37889862060547, 36.59669876098633],
      "min": [-100.0, -88.37889862060547, -36.47460174560547],
      "type": "VEC3"
    },
    {
      "bufferView": 2,
      "byteOffset": 142788,
      "componentType": 5126,
      "count": 1241,
      "max": [1.0, 1.0, 0.9979622960090637],
      "min": [-1.0, -0.9999687671661377, -1.0],
      "type": "VEC3"
    },
    {
      "bufferView": 1,
      "byteOffset": 42632,
      "componentType": 5126,
      "count": 1241,
      "max": [0.9961000084877014, 0.9991000294685364],
      "min": [0.003100000089034438, 0.0034000000450760126],
      "type": "VEC2"
    },
    {
      "bufferView": 0,
      "byteOffset": 39972,
      "componentType": 5125,
      "count": 2409,
      "type": "SCALAR"
    },
    {
      "bufferView": 2,
      "byteOffset": 157680,
      "componentType": 5126,
      "count": 45,
      "max": [10.400400161743164, -12.396200180053711, 35.595699310302734],
      "min": [-10.406499862670898, -77.7343978881836, 7.373000144958496],
      "type": "VEC3"
    },
    {
      "bufferView": 2,
      "byteOffset": 158220,
      "componentType": 5126,
      "count": 45,
      "max": [0.8555994629859924, -0.029499853029847145, 0.9969062209129333],
      "min": [-0.8556699156761169, -0.8776624202728271, 0.479279488325119],
      "type": "VEC3"
    },
    {
      "bufferView": 1,
      "byteOffset": 52560,
      "componentType": 5126,
      "count": 45,
      "max": [0.211899995803833, 0.9945999979972839],
      "min": [0.012799999676644802, 0.5083000063896179],
      "type": "VEC2"
    },
    {
      "bufferView": 0,
      "byteOffset": 49608,
      "componentType": 5125,
      "count": 168,
      "type": "SCALAR"
    }
  ],
  "asset": {
    "extras": {
      "author": "lightwarrior (https://sketchfab.com/lightwarrior)",
      "license": "CC-BY-4.0 (http://creativecommons.org/licenses/by/4.0/)",
      "source": "https://sketchfab.com/3d-models/pirate-hunter-d8c7df95b9614390bc4d907172cd3e9d",
      "title": "Pirate Hunter"
    },
    "generator": "Sketchfab-10.64.0",
    "version": "2.0"
  },
  "bufferViews": [
    {
      "buffer": 0,
      "byteLength": 50280,
      "name": "floatBufferViews",
      "target": 34963
    },
    {
      "buffer": 0,
      "byteLength": 52920,
      "byteOffset": 50280,
      "byteStride": 8,
      "name": "floatBufferViews",
      "target": 34962
    },
    {
      "buffer": 0,
      "byteLength": 158760,
      "byteOffset": 103200,
      "byteStride": 12,
      "name": "floatBufferViews",
      "target": 34962
    }
  ],
  "buffers": [
    {
      "byteLength": 261960,
      "uri": "carrier.bin"
    }
  ],
  "extensionsUsed": ["KHR_materials_clearcoat"],
  "images": [
    {
      "uri": "textures1/Tex_0016_0_dds_baseColor.png"
    },
    {
      "uri": "textures1/Tex_0016_0_dds_emissive.png"
    },
    {
      "uri": "textures1/Tex_0020_0_dds_baseColor.png"
    },
    {
      "uri": "textures1/Tex_0020_0_dds_clearcoat.png"
    }
  ],
  "materials": [
    {
      "doubleSided": true,
      "emissiveFactor": [1.0, 1.0, 1.0],
      "emissiveTexture": {
        "index": 1
      },
      "name": "Tex_0016_0_dds",
      "pbrMetallicRoughness": {
        "baseColorTexture": {
          "index": 0
        },
        "roughnessFactor": 0.6
      }
    },
    {
      "doubleSided": true,
      "extensions": {
        "KHR_materials_clearcoat": {
          "clearcoatFactor": 0.7931523672352924,
          "clearcoatRoughnessFactor": 0.04,
          "clearcoatTexture": {
            "index": 3
          }
        }
      },
      "name": "Tex_0020_0_dds",
      "pbrMetallicRoughness": {
        "baseColorTexture": {
          "index": 2
        },
        "metallicFactor": 0.0,
        "roughnessFactor": 0.6
      }
    }
  ],
  "meshes": [
    {
      "name": "Object_0",
      "primitives": [
        {
          "attributes": {
            "NORMAL": 1,
            "POSITION": 0,
            "TEXCOORD_0": 2
          },
          "indices": 3,
          "material": 0,
          "mode": 4
        }
      ]
    },
    {
      "name": "Object_1",
      "primitives": [
        {
          "attributes": {
            "NORMAL": 5,
            "POSITION": 4,
            "TEXCOORD_0": 6
          },
          "indices": 7,
          "material": 0,
          "mode": 4
        }
      ]
    },
    {
      "name": "Object_2",
      "primitives": [
        {
          "attributes": {
            "NORMAL": 9,
            "POSITION": 8,
            "TEXCOORD_0": 10
          },
          "indices": 11,
          "material": 1,
          "mode": 4
        }
      ]
    }
  ],
  "nodes": [
    {
      "children": [1],
      "matrix": [
        1.0, 0.0, 0.0, 0.0, 0.0, 2.220446049250313e-16, -1.0, 0.0, 0.0, 1.0,
        2.220446049250313e-16, 0.0, 0.0, 0.0, 0.0, 1.0
      ],
      "name": "Sketchfab_model"
    },
    {
      "children": [2, 3, 4],
      "name": "Pirate Hunter.obj.cleaner.materialmerger.gles"
    },
    {
      "mesh": 0,
      "name": "Object_2"
    },
    {
      "mesh": 1,
      "name": "Object_3"
    },
    {
      "mesh": 2,
      "name": "Object_4"
    }
  ],
  "samplers": [
    {
      "magFilter": 9729,
      "minFilter": 9987,
      "wrapS": 10497,
      "wrapT": 10497
    }
  ],
  "scene": 0,
  "scenes": [
    {
      "name": "Sketchfab_Scene",
      "nodes": [0]
    }
  ],
  "textures": [
    {
      "sampler": 0,
      "source": 0
    },
    {
      "sampler": 0,
      "source": 1
    },
    {
      "sampler": 0,
      "source": 2
    },
    {
      "sampler": 0,
      "source": 3
    }
  ]
}
